<svg width="219" height="216" viewBox="0 0 219 216" fill="none" xmlns="http://www.w3.org/2000/svg">
<g clip-path="url(#clip0_1003_575)">
<path opacity="0.1" d="M213.904 120.708C207.672 139.641 194.242 160.399 174.473 167.155C144.609 177.369 141.93 201.915 87.7423 201.748C79.8293 201.759 71.9385 200.91 64.2082 199.215C60.4289 198.373 56.7069 197.29 53.0649 195.974C20.9562 184.366 3.37721 156.76 0.859329 127.26C-2.44394 88.4579 23.8991 68.8855 41.053 57.3421C58.2069 45.7987 77.7955 2.9589 131.082 2.70424C139.217 2.63115 147.332 3.49969 155.268 5.29259C173.359 9.45988 191.978 19.4938 203.163 34.7878C203.999 35.9361 204.803 37.1029 205.579 38.3161C220.682 61.852 222.405 94.8894 213.904 120.708Z" fill="#3382EB"/>
<path opacity="0.1" d="M213.904 120.708C207.672 139.641 194.242 160.399 174.473 167.155C144.609 177.369 141.93 201.915 87.7423 201.748C79.8293 201.759 71.9385 200.91 64.2082 199.215C60.4289 198.373 56.7069 197.29 53.0649 195.974C20.9562 184.366 3.37721 156.76 0.859329 127.26C-2.44394 88.4579 23.8991 68.8855 41.053 57.3421C58.2069 45.7987 77.7955 2.9589 131.082 2.70424C139.217 2.63115 147.332 3.49969 155.268 5.29259C173.359 9.45988 191.978 19.4938 203.163 34.7878C203.999 35.9361 204.803 37.1029 205.579 38.3161C220.682 61.852 222.405 94.8894 213.904 120.708Z" fill="#DBFDFF"/>
<path d="M7.25337 5.99637L3.8808 9.91825H64.1621V5.99637" stroke="black" stroke-width="0.471607" stroke-linecap="round" stroke-linejoin="round"/>
<path d="M7.25337 11.6592L3.8808 15.5811H64.1621V11.6592" stroke="black" stroke-width="0.471607" stroke-linecap="round" stroke-linejoin="round"/>
<path d="M7.25337 17.3266L3.8808 21.2485H64.1621V17.3266" stroke="black" stroke-width="0.471607" stroke-linecap="round" stroke-linejoin="round"/>
<path d="M7.25337 22.9895L3.8808 26.9114H64.1621V22.9895" stroke="black" stroke-width="0.471607" stroke-linecap="round" stroke-linejoin="round"/>
<path d="M7.25337 28.6524L3.8808 32.5743H64.1621V28.6524" stroke="black" stroke-width="0.471607" stroke-linecap="round" stroke-linejoin="round"/>
<path d="M7.25337 34.32L3.8808 38.2419H64.1621V34.32" stroke="black" stroke-width="0.471607" stroke-linecap="round" stroke-linejoin="round"/>
<path d="M7.25337 39.9829L3.8808 43.9048H64.1621V39.9829" stroke="black" stroke-width="0.471607" stroke-linecap="round" stroke-linejoin="round"/>
<path d="M7.25337 45.6503L3.8808 49.5722H64.1621V45.6503" stroke="black" stroke-width="0.471607" stroke-linecap="round" stroke-linejoin="round"/>
<path d="M7.25337 51.3132L3.8808 55.2351H64.1621V51.3132" stroke="black" stroke-width="0.471607" stroke-linecap="round" stroke-linejoin="round"/>
<path d="M7.25337 56.9808L3.8808 60.9027H64.1621V56.9808" stroke="black" stroke-width="0.471607" stroke-linecap="round" stroke-linejoin="round"/>
<path d="M7.25337 62.6437L3.8808 66.5656H64.1621V62.6437" stroke="black" stroke-width="0.471607" stroke-linecap="round" stroke-linejoin="round"/>
<path d="M7.25337 68.3065L3.8808 72.2284H64.1621V68.3065" stroke="black" stroke-width="0.471607" stroke-linecap="round" stroke-linejoin="round"/>
<path d="M7.25337 73.9739L3.8808 77.8958H64.1621V73.9739" stroke="black" stroke-width="0.471607" stroke-linecap="round" stroke-linejoin="round"/>
<path d="M7.25337 79.6371L3.8808 83.5589H64.1621V79.6371" stroke="black" stroke-width="0.471607" stroke-linecap="round" stroke-linejoin="round"/>
<path d="M7.25337 85.3044L3.8808 89.2217H64.1621V85.3044" stroke="black" stroke-width="0.471607" stroke-linecap="round" stroke-linejoin="round"/>
<path d="M7.25337 90.9673L3.8808 94.8892H64.1621V90.9673" stroke="black" stroke-width="0.471607" stroke-linecap="round" stroke-linejoin="round"/>
<path d="M7.25337 96.6302L3.8808 100.552H64.1621V96.6302" stroke="black" stroke-width="0.471607" stroke-linecap="round" stroke-linejoin="round"/>
<path d="M67.031 0.231506H3.79297V6.05182H67.031V0.231506Z" stroke="black" stroke-width="0.471607" stroke-linecap="round" stroke-linejoin="round"/>
<path d="M65.6035 6.32034V63.8753" stroke="black" stroke-width="0.471607" stroke-linecap="round" stroke-linejoin="round"/>
<path d="M66.7169 64.0558H64.6564V68.112H66.7169V64.0558Z" stroke="black" stroke-width="0.471607" stroke-linecap="round" stroke-linejoin="round"/>
<path d="M26.5232 121.555C26.5304 121.547 26.5343 121.536 26.5343 121.525C26.5343 121.514 26.5304 121.504 26.5232 121.495C26.5127 121.492 26.5014 121.492 26.4912 121.496C26.481 121.501 26.4727 121.508 26.4678 121.518C25.1741 124.621 24.1523 127.832 23.414 131.112C22.659 134.393 22.0883 137.714 21.7046 141.058L21.469 143.573C21.432 143.994 21.3858 144.411 21.3535 144.832L21.2888 146.091C21.2518 146.934 21.201 147.772 21.1733 148.615L21.1964 151.138L21.2241 152.403C21.2472 152.824 21.2749 153.245 21.3026 153.662C21.3673 154.505 21.4181 155.343 21.4967 156.181C21.6538 157.852 21.9079 159.519 22.1666 161.177C22.1665 161.182 22.1676 161.188 22.1698 161.192C22.1719 161.197 22.175 161.201 22.179 161.205C22.1829 161.208 22.1876 161.211 22.1926 161.213C22.1976 161.214 22.2029 161.215 22.2082 161.214C22.2196 161.214 22.2307 161.21 22.2393 161.202C22.2478 161.194 22.2532 161.184 22.2543 161.172C22.2543 160.33 22.2128 159.492 22.1943 158.658C22.1758 157.825 22.0973 156.987 22.1111 156.148C22.125 155.31 22.1111 154.477 22.0834 153.643L22.0603 152.389V151.138V148.633L22.1296 146.133L22.1527 144.883C22.1527 144.466 22.1989 144.049 22.222 143.633L22.3745 141.132C22.661 137.802 23.133 134.491 23.7882 131.214C24.42 127.921 25.3351 124.69 26.5232 121.555Z" fill="black"/>
<path d="M26.8928 134.645C26.8949 134.634 26.8934 134.623 26.8883 134.613C26.8833 134.603 26.8751 134.595 26.8651 134.59C26.8596 134.587 26.8538 134.586 26.8479 134.587C26.8421 134.587 26.8364 134.588 26.8311 134.591C26.8259 134.594 26.8213 134.597 26.8176 134.602C26.8139 134.606 26.8112 134.612 26.8096 134.617C25.3808 138.791 24.4322 143.114 23.9822 147.504C23.7604 149.694 23.5202 151.889 23.4832 154.088C23.4302 156.292 23.5089 158.496 23.7189 160.691C23.7197 160.701 23.7237 160.71 23.7304 160.718C23.7371 160.725 23.746 160.73 23.7558 160.732C23.7619 160.733 23.768 160.732 23.7739 160.731C23.7797 160.729 23.7852 160.726 23.7899 160.722C23.7946 160.718 23.7985 160.714 23.8014 160.708C23.8043 160.703 23.8061 160.697 23.8066 160.691C24.0607 158.501 24.2132 156.31 24.3657 154.125C24.5181 151.939 24.5412 149.749 24.6844 147.564C24.8175 145.382 25.0736 143.21 25.4513 141.058C25.8138 138.896 26.295 136.755 26.8928 134.645Z" fill="black"/>
<path d="M34.123 139.248C34.1144 139.239 34.1028 139.234 34.0907 139.234C34.0786 139.234 34.067 139.239 34.0583 139.248C32.2432 140.407 30.6073 141.827 29.2027 143.461C28.4979 144.286 27.8642 145.169 27.3086 146.101L26.9205 146.837L26.6156 147.601C26.5132 147.854 26.4238 148.112 26.3476 148.374C26.2691 148.633 26.1859 148.897 26.112 149.157C25.5599 151.249 25.2255 153.394 25.1141 155.556C25.0045 157.707 25.0849 159.864 25.3543 162.001C25.3551 162.011 25.3592 162.021 25.3658 162.028C25.3725 162.036 25.3814 162.041 25.3913 162.043C25.4033 162.043 25.415 162.039 25.4243 162.031C25.4336 162.024 25.4399 162.013 25.4421 162.001L25.9919 155.62C26.1443 153.509 26.4142 151.409 26.8004 149.328C26.8558 149.073 26.9297 148.819 26.9944 148.568C27.0536 148.313 27.1277 148.061 27.2162 147.814L27.4934 147.078L27.826 146.383C28.328 145.455 28.9092 144.572 29.5631 143.744C30.8522 142.05 32.3823 140.556 34.1045 139.308C34.1139 139.301 34.1208 139.292 34.1242 139.281C34.1275 139.27 34.1271 139.258 34.123 139.248Z" fill="black"/>
<path d="M30.6165 147.443C29.6767 148.133 28.9213 149.044 28.4174 150.097C27.8859 151.127 27.4721 152.214 27.1838 153.338C27.0974 153.615 27.0249 153.896 26.9667 154.18L26.7681 155.028C26.6626 155.597 26.5916 156.172 26.5555 156.75C26.5555 157.329 26.5278 157.908 26.5555 158.482C26.5962 159.06 26.6718 159.635 26.7819 160.205C26.7841 160.213 26.7888 160.222 26.7953 160.228C26.8018 160.235 26.8099 160.239 26.8189 160.242C26.8247 160.243 26.8307 160.243 26.8365 160.242C26.8424 160.241 26.8479 160.238 26.8527 160.235C26.8575 160.231 26.8615 160.227 26.8645 160.221C26.8674 160.216 26.8692 160.21 26.8697 160.205C27.0026 159.646 27.1044 159.08 27.1746 158.51C27.2624 157.95 27.3502 157.389 27.4195 156.834C27.4888 156.278 27.5719 155.722 27.6181 155.162C27.6643 154.602 27.7336 154.042 27.8584 153.495C28.045 152.391 28.3549 151.312 28.7824 150.277C29.1689 149.217 29.8024 148.264 30.6303 147.499C30.6343 147.495 30.6374 147.491 30.6396 147.486C30.6417 147.482 30.6429 147.476 30.6429 147.471C30.6429 147.466 30.6417 147.461 30.6396 147.456C30.6374 147.451 30.6343 147.447 30.6303 147.443C30.6257 147.443 30.6211 147.443 30.6165 147.443Z" fill="black"/>
<path d="M20.4664 153.833C20.2262 151.004 19.7596 148.198 19.3207 145.397C18.8818 142.595 18.3967 139.799 17.8792 137.007C17.3618 134.215 16.7982 131.45 16.1976 128.672C16.1945 128.663 16.1887 128.655 16.1808 128.649C16.1729 128.643 16.1634 128.64 16.1537 128.64C16.144 128.64 16.1345 128.643 16.1266 128.649C16.1187 128.655 16.1128 128.663 16.1098 128.672C16.5949 131.45 17.0338 134.266 17.445 137.067C17.8561 139.868 18.2673 142.674 18.6231 145.48C18.9788 148.286 19.2375 151.111 19.5886 153.912L20.6235 162.358C20.6235 162.369 20.6279 162.379 20.6357 162.387C20.6435 162.395 20.6541 162.399 20.6651 162.399C20.6763 162.399 20.6869 162.394 20.6953 162.386C20.7036 162.379 20.7093 162.369 20.7113 162.358C20.7436 161.645 20.7436 160.936 20.7621 160.223C20.7806 159.51 20.7298 158.802 20.7205 158.093C20.6928 156.667 20.5727 155.255 20.4664 153.833Z" fill="black"/>
<path d="M18.7709 153.796C18.6184 152.671 18.4152 151.555 18.198 150.444L17.8053 148.791C17.6713 148.24 17.5512 147.689 17.3895 147.142C16.8262 144.946 16.1036 142.793 15.2274 140.702L14.8809 139.924L14.502 139.16C14.2664 138.646 13.9754 138.16 13.6982 137.664C13.1463 136.67 12.4607 135.757 11.6608 134.951C11.6569 134.947 11.6522 134.944 11.6471 134.941C11.6419 134.939 11.6364 134.938 11.6307 134.938C11.6251 134.938 11.6196 134.939 11.6144 134.941C11.6093 134.944 11.6046 134.947 11.6007 134.951C11.5967 134.955 11.5934 134.959 11.5912 134.965C11.589 134.97 11.5879 134.975 11.5879 134.981C11.5879 134.987 11.589 134.992 11.5912 134.997C11.5934 135.002 11.5967 135.007 11.6007 135.011C12.3399 135.849 12.9616 136.783 13.4487 137.789C13.6982 138.289 13.9569 138.785 14.1648 139.308L14.4974 140.077L14.7931 140.864C15.5747 142.964 16.2031 145.118 16.6734 147.309C16.9321 148.397 17.1031 149.509 17.3156 150.606L17.5789 152.268C17.676 152.819 17.7915 153.366 17.87 153.921C18.0456 155.028 18.2488 156.135 18.4429 157.241C18.6369 158.348 18.8171 159.464 19.0481 160.57C19.0502 160.581 19.0561 160.591 19.0645 160.597C19.0729 160.604 19.0835 160.608 19.0943 160.607C19.1053 160.607 19.1159 160.603 19.1237 160.595C19.1315 160.587 19.1359 160.577 19.1359 160.566C19.1359 159.433 19.1097 158.302 19.0573 157.172C19.0388 156.047 18.8864 154.921 18.7709 153.796Z" fill="black"/>
<path d="M16.4332 153.94C15.9065 152.453 15.3013 151 14.6407 149.573C13.9749 148.149 13.2235 146.767 12.3907 145.434C12.382 145.428 12.3715 145.424 12.3607 145.424C12.3499 145.424 12.3394 145.428 12.3307 145.434C12.3235 145.442 12.3196 145.453 12.3196 145.464C12.3196 145.475 12.3235 145.486 12.3307 145.494C13.0556 146.878 13.6974 148.303 14.2526 149.763C14.8254 151.208 15.3429 152.68 15.7725 154.171C16.2022 155.662 16.5348 157.186 16.9275 158.686C17.3202 160.186 17.6806 161.696 18.1426 163.21C18.1454 163.219 18.1509 163.227 18.1583 163.232C18.1657 163.238 18.1748 163.242 18.1842 163.242C18.1957 163.242 18.2068 163.238 18.2153 163.23C18.2238 163.223 18.2292 163.212 18.2304 163.2C18.2485 161.618 18.1014 160.038 17.7915 158.487C17.4601 156.937 17.0059 155.417 16.4332 153.94Z" fill="black"/>
<path d="M16.3362 158.89C16.0475 157.962 15.6274 157.081 15.0888 156.273C14.5887 155.445 13.9795 154.688 13.2778 154.023C12.9141 153.698 12.523 153.405 12.1089 153.148C11.7054 152.885 11.2646 152.686 10.8015 152.555C10.7911 152.553 10.7804 152.555 10.7712 152.56C10.7619 152.565 10.7547 152.573 10.7506 152.583C10.7438 152.591 10.7401 152.601 10.7401 152.611C10.7401 152.621 10.7438 152.631 10.7506 152.639C11.5855 153.038 12.3246 153.612 12.9174 154.324C13.5219 155.016 14.0301 155.787 14.4281 156.616C14.8578 157.431 15.0795 158.329 15.4538 159.167C15.6155 159.598 15.7818 160.029 15.9712 160.459C16.1324 160.906 16.3222 161.342 16.5395 161.765C16.5432 161.772 16.5486 161.777 16.555 161.781C16.5615 161.785 16.5688 161.788 16.5764 161.788C16.5884 161.788 16.6001 161.784 16.6094 161.777C16.6187 161.769 16.625 161.758 16.6272 161.746C16.6412 161.263 16.6226 160.778 16.5718 160.297C16.5487 159.829 16.4471 159.357 16.3362 158.89Z" fill="black"/>
<path d="M16.5071 132.724C15.0961 132.329 13.8195 131.555 12.8155 130.486C11.8115 129.417 11.1182 128.093 10.8107 126.658C9.73888 121.657 13.1854 123.801 10.0992 115.943C7.0131 108.086 7.72457 106.308 8.79178 104.043C9.859 101.779 10.455 102.497 11.4021 105.474C12.3492 108.451 15.8049 113.091 17.1031 121.777C18.4013 130.464 16.5071 132.724 16.5071 132.724Z" fill="#3382EB"/>
<path d="M25.6547 124.278C25.6547 124.278 22.5639 123.204 22.4484 117.374C22.3329 111.544 24.703 112.744 25.0587 105.474C25.4144 98.2045 25.8903 93.0972 27.1977 92.9722C28.5052 92.8472 31.9471 96.5422 33.1344 104.636C34.3217 112.73 31.5913 118.064 29.2167 120.462C26.842 122.861 25.6547 124.278 25.6547 124.278Z" fill="#3382EB"/>
<path d="M14.8486 139.748C14.8486 139.748 14.1325 135.465 12.7096 133.441C11.2866 131.418 8.19586 129.631 6.17693 125.704C4.15801 121.778 1.90347 119.875 2.01897 125.468C2.13447 131.061 4.62925 133.914 7.72 135.821C10.8108 137.729 14.8486 139.748 14.8486 139.748Z" fill="#3382EB"/>
<path d="M13.5411 147.124C13.5411 147.124 10.6906 141.651 6.53722 137.604C2.38388 133.557 -0.947111 131.534 0.240219 133.557C1.42755 135.581 2.85512 135.465 4.86018 139.035C6.86524 142.605 6.28313 145.221 9.13364 147.244C11.9842 149.268 13.5411 147.124 13.5411 147.124Z" fill="#3382EB"/>
<path d="M13.1853 154.148C13.0652 153.792 12.9451 151.171 8.91186 149.055C4.87863 146.939 1.05792 147.744 1.54764 148.814C2.03735 149.884 4.51827 151.671 7.00843 152.741C9.49859 153.81 13.1853 154.148 13.1853 154.148Z" fill="#3382EB"/>
<path d="M25.4144 139.984C25.4144 139.984 23.6589 137.724 24.5828 132.964C25.5068 128.204 27.669 129.394 30.0483 126.894C32.4275 124.394 31.9471 124.037 34.3217 121.421C36.6964 118.805 38.8308 117.374 39.7825 118.444C40.7342 119.513 39.3205 122.847 37.8837 124.75C36.4469 126.653 34.1877 127.607 33.1344 129.987C32.081 132.367 32.5384 136.178 29.808 137.96C27.0776 139.743 25.4144 139.984 25.4144 139.984Z" fill="#3382EB"/>
<path d="M31.3511 141.294C31.3511 141.294 35.6292 136.428 38.7153 132.844C41.8014 129.26 42.9888 126.537 43.1089 128.917C43.229 131.297 44.1761 133.2 41.6813 136.294C39.1865 139.387 31.3511 141.294 31.3511 141.294Z" fill="#3382EB"/>
<path d="M29.0965 149.147C29.0965 149.147 28.9764 147.244 35.7446 142.841C42.5129 138.437 45.3634 137.604 44.6519 139.391C43.9405 141.179 40.956 142.961 37.7636 146.175C34.5712 149.388 29.0965 149.147 29.0965 149.147Z" fill="#3382EB"/>
<path d="M16.7935 132.219C16.7935 132.219 15.2043 123.681 13.5596 117.61C11.9149 111.54 10.8292 107.854 10.8292 107.854" stroke="black" stroke-width="0.471607" stroke-linecap="round" stroke-linejoin="round"/>
<path d="M25.3774 124.389C25.3774 124.389 28.2788 115.128 29.2028 109.516C30.1268 103.904 29.0826 99.7603 28.6068 97.2599" stroke="black" stroke-width="0.471607" stroke-linecap="round" stroke-linejoin="round"/>
<path d="M14.4743 139.567C13.1949 137.365 11.7313 135.275 10.0992 133.321C7.48433 130.228 5.47927 128.561 4.27808 125.584" stroke="black" stroke-width="0.471607" stroke-linecap="round" stroke-linejoin="round"/>
<path d="M25.4144 139.984C25.4144 139.984 26.3661 134.27 28.6207 131.298C30.8752 128.325 35.3889 123.681 37.1722 120.685" stroke="black" stroke-width="0.471607" stroke-linecap="round" stroke-linejoin="round"/>
<path d="M12.9036 154.023C12.9036 154.023 8.91192 151.416 6.0614 149.985" stroke="black" stroke-width="0.471607" stroke-linecap="round" stroke-linejoin="round"/>
<path d="M35.7862 178.004C35.5183 170.785 27.5119 165.965 27.5119 165.965H15.2412C15.2412 165.965 7.23486 170.78 6.9669 178.004C6.69894 185.227 16.0405 211.703 16.0405 211.703H26.7126C26.7126 211.703 36.0496 185.227 35.7862 178.004Z" fill="black" stroke="black" stroke-width="0.471607" stroke-linecap="round" stroke-linejoin="round"/>
<path d="M29.0919 158.866H13.4348L15.2412 165.969H27.2855L29.0919 158.866Z" fill="black" stroke="black" stroke-width="0.471607" stroke-linecap="round" stroke-linejoin="round"/>
<path d="M217.013 211.703H2.32849" stroke="black" stroke-width="0.471607" stroke-linecap="round" stroke-linejoin="round"/>
<path d="M134.621 19.4935V178.601C134.621 180.698 133.79 182.71 132.31 184.193C130.83 185.676 128.823 186.509 126.73 186.509H58.133C56.0402 186.509 54.0331 185.676 52.5533 184.193C51.0734 182.71 50.2421 180.698 50.2421 178.601V19.4889C50.2421 17.3927 51.0729 15.3823 52.5519 13.9C54.0309 12.4177 56.0368 11.585 58.1283 11.585H87.5713L87.5991 11.6729C88.3383 14.3215 90.0199 16.0393 91.8956 16.0393H92.9582C94.8339 16.0393 96.5202 14.3168 97.2548 11.6683L97.2871 11.5803H126.73C127.767 11.5803 128.793 11.785 129.751 12.1828C130.709 12.5805 131.579 13.1635 132.311 13.8983C133.044 14.6332 133.625 15.5056 134.022 16.4656C134.418 17.4257 134.622 18.4546 134.621 19.4935Z" fill="white" stroke="black" stroke-width="0.471607" stroke-miterlimit="10"/>
<path d="M105.386 115.517H80.914C79.679 115.517 78.6779 116.521 78.6779 117.758V122.315C78.6779 123.552 79.679 124.556 80.914 124.556H105.386C106.621 124.556 107.622 123.552 107.622 122.315V117.758C107.622 116.521 106.621 115.517 105.386 115.517Z" fill="black" stroke="black" stroke-width="0.471607" stroke-linecap="round" stroke-linejoin="round"/>
<path d="M50.2421 137.011V178.601C50.2421 180.698 51.0734 182.71 52.5533 184.193C54.0331 185.676 56.0402 186.509 58.133 186.509H126.73C128.823 186.509 130.83 185.676 132.31 184.193C133.79 182.71 134.621 180.698 134.621 178.601V137.011H50.2421Z" fill="#DBDBDB" stroke="black" stroke-width="0.471607" stroke-linecap="round" stroke-linejoin="round"/>
<path d="M75.9429 142.031H54.9082C54.329 142.031 53.8595 142.501 53.8595 143.082V148.768C53.8595 149.348 54.329 149.819 54.9082 149.819H75.9429C76.5221 149.819 76.9916 149.348 76.9916 148.768V143.082C76.9916 142.501 76.5221 142.031 75.9429 142.031Z" fill="white"/>
<path d="M101.829 142.031H80.7939C80.2147 142.031 79.7451 142.501 79.7451 143.082V148.768C79.7451 149.348 80.2147 149.819 80.7939 149.819H101.829C102.408 149.819 102.877 149.348 102.877 148.768V143.082C102.877 142.501 102.408 142.031 101.829 142.031Z" fill="white"/>
<path d="M127.719 142.031H106.684C106.105 142.031 105.635 142.501 105.635 143.082V148.768C105.635 149.348 106.105 149.819 106.684 149.819H127.719C128.298 149.819 128.768 149.348 128.768 148.768V143.082C128.768 142.501 128.298 142.031 127.719 142.031Z" fill="white"/>
<path d="M75.9429 151.986H54.9082C54.329 151.986 53.8595 152.456 53.8595 153.037V158.723C53.8595 159.303 54.329 159.774 54.9082 159.774H75.9429C76.5221 159.774 76.9916 159.303 76.9916 158.723V153.037C76.9916 152.456 76.5221 151.986 75.9429 151.986Z" fill="white"/>
<path d="M101.829 151.986H80.7939C80.2147 151.986 79.7451 152.456 79.7451 153.037V158.723C79.7451 159.303 80.2147 159.774 80.7939 159.774H101.829C102.408 159.774 102.877 159.303 102.877 158.723V153.037C102.877 152.456 102.408 151.986 101.829 151.986Z" fill="white"/>
<path d="M127.719 151.986H106.684C106.105 151.986 105.635 152.456 105.635 153.037V158.723C105.635 159.303 106.105 159.774 106.684 159.774H127.719C128.298 159.774 128.768 159.303 128.768 158.723V153.037C128.768 152.456 128.298 151.986 127.719 151.986Z" fill="white"/>
<path d="M75.9429 161.936H54.9082C54.329 161.936 53.8595 162.407 53.8595 162.987V168.673C53.8595 169.254 54.329 169.725 54.9082 169.725H75.9429C76.5221 169.725 76.9916 169.254 76.9916 168.673V162.987C76.9916 162.407 76.5221 161.936 75.9429 161.936Z" fill="white"/>
<path d="M101.829 161.936H80.7939C80.2147 161.936 79.7451 162.407 79.7451 162.987V168.673C79.7451 169.254 80.2147 169.725 80.7939 169.725H101.829C102.408 169.725 102.877 169.254 102.877 168.673V162.987C102.877 162.407 102.408 161.936 101.829 161.936Z" fill="white"/>
<path d="M127.719 161.936H106.684C106.105 161.936 105.635 162.407 105.635 162.987V168.673C105.635 169.254 106.105 169.725 106.684 169.725H127.719C128.298 169.725 128.768 169.254 128.768 168.673V162.987C128.768 162.407 128.298 161.936 127.719 161.936Z" fill="white"/>
<path d="M101.829 171.892H80.7939C80.2147 171.892 79.7451 172.362 79.7451 172.943V178.629C79.7451 179.209 80.2147 179.68 80.7939 179.68H101.829C102.408 179.68 102.877 179.209 102.877 178.629V172.943C102.877 172.362 102.408 171.892 101.829 171.892Z" fill="white"/>
<path d="M125.972 179.68H111.544L108.43 176.05L111.544 171.892H125.972V179.68Z" fill="white"/>
<path d="M93.3556 47.6182L93.1477 47.4608L92.9398 47.6182C92.9398 47.6182 82.3139 53.6793 77.5091 55.9806C77.5091 55.9806 79.8191 68.9455 81.4684 74.789C83.1177 80.6325 89.6042 83.7765 93.1477 85.8647C96.6958 83.7765 103.159 80.6417 104.827 74.789C106.495 68.9363 108.791 55.9806 108.791 55.9806C103.991 53.6793 93.3556 47.6182 93.3556 47.6182Z" fill="#3382EB"/>
<path d="M92.0574 72.673L85.0073 66.6165C84.8459 66.4782 84.7133 66.3094 84.617 66.1197C84.5208 65.93 84.4627 65.7231 84.4462 65.5109C84.4128 65.0824 84.5507 64.6581 84.8294 64.3315C85.1082 64.0048 85.505 63.8025 85.9326 63.7691C86.3602 63.7357 86.7835 63.8738 87.1094 64.1532L91.7294 68.126L99.648 59.1015C99.931 58.7786 100.33 58.5815 100.758 58.5537C101.186 58.5259 101.608 58.6697 101.93 58.9534C102.252 59.237 102.449 59.6374 102.477 60.0664C102.505 60.4953 102.361 60.9178 102.078 61.2407L92.0574 72.673Z" fill="white"/>
<path d="M65.6219 93.1019H56.0309V102.714H65.6219V93.1019Z" fill="white" stroke="black" stroke-width="0.471607" stroke-miterlimit="10"/>
<path d="M78.5486 93.1019H68.9575V102.714H78.5486V93.1019Z" fill="white" stroke="black" stroke-width="0.471607" stroke-miterlimit="10"/>
<path d="M91.4798 93.1019H81.8888V102.714H91.4798V93.1019Z" fill="white" stroke="black" stroke-width="0.471607" stroke-miterlimit="10"/>
<path d="M104.411 93.1019H94.8201V102.714H104.411V93.1019Z" fill="white" stroke="black" stroke-width="0.471607" stroke-miterlimit="10"/>
<path d="M117.338 93.1019H107.747V102.714H117.338V93.1019Z" fill="white" stroke="black" stroke-width="0.471607" stroke-miterlimit="10"/>
<path d="M130.269 93.1019H120.678V102.714H130.269V93.1019Z" fill="white" stroke="black" stroke-width="0.471607" stroke-miterlimit="10"/>
<path d="M134.621 26.8928V19.4843C134.619 17.3884 133.786 15.3792 132.307 13.8981C130.827 12.4169 128.821 11.585 126.73 11.585H97.2917L97.264 11.6729C96.5295 14.3215 94.8432 16.0393 92.9582 16.0393H91.8956C90.0199 16.0393 88.329 14.3168 87.5991 11.6683L87.5713 11.5803H58.1283C56.0368 11.5803 54.0309 12.4131 52.5519 13.8953C51.0729 15.3776 50.2421 17.388 50.2421 19.4843V26.8928H134.621Z" fill="#DBDBDB" stroke="black" stroke-width="0.471607" stroke-linecap="round" stroke-linejoin="round"/>
<path d="M139.985 57.4947V41.6034H138.548V21.2578C138.549 19.6107 138.225 17.9797 137.597 16.4579C136.969 14.9361 136.047 13.5532 134.885 12.3884C133.724 11.2236 132.344 10.2996 130.826 9.66912C129.308 9.03869 127.68 8.71421 126.037 8.71421H58.826C57.1812 8.71239 55.5523 9.03549 54.0322 9.66504C52.5122 10.2946 51.1309 11.2183 49.9672 12.3832C48.8036 13.5482 47.8805 14.9316 47.2506 16.4543C46.6208 17.9771 46.2966 19.6093 46.2966 21.2578V182.926C46.2966 184.573 46.6204 186.203 47.2494 187.725C47.8784 189.247 48.8004 190.629 49.9626 191.794C51.1248 192.958 52.5046 193.881 54.023 194.511C55.5414 195.141 57.1688 195.465 58.8121 195.464H126.037C127.68 195.465 129.307 195.141 130.826 194.511C132.344 193.881 133.723 192.958 134.885 191.793C136.047 190.629 136.968 189.246 137.597 187.725C138.225 186.203 138.549 184.572 138.548 182.926V71.0384H139.985V61.6481H138.548V57.4808L139.985 57.4947ZM134.621 173.966C134.621 177.293 133.302 180.483 130.955 182.835C128.608 185.188 125.425 186.509 122.106 186.509H62.7576C59.4382 186.509 56.2549 185.188 53.9078 182.835C51.5607 180.483 50.2421 177.293 50.2421 173.966V24.1239C50.2433 20.798 51.5624 17.6087 53.9094 15.2573C56.2564 12.9059 59.439 11.585 62.7576 11.585H87.5714L87.5991 11.673C88.3383 14.3215 90.0199 16.0394 91.8956 16.0394H92.9582C94.8339 16.0394 96.5202 14.3169 97.2548 11.6684L97.2871 11.5804H122.096C125.415 11.5804 128.598 12.9013 130.944 15.2527C133.291 17.604 134.611 20.7933 134.612 24.1193L134.621 173.966Z" fill="#3382EB" stroke="black" stroke-width="0.471607" stroke-linecap="round" stroke-linejoin="round"/>
<path d="M125.035 10.4413H59.8285C56.6308 10.4425 53.5643 11.7152 51.3019 13.9801C49.0395 16.245 47.7661 19.3169 47.7612 22.5218V181.643C47.7612 184.851 49.0325 187.927 51.2956 190.195C53.5587 192.463 56.628 193.737 59.8285 193.737H125.035C128.235 193.737 131.304 192.463 133.568 190.195C135.831 187.927 137.102 184.851 137.102 181.643V22.5218C137.097 19.3169 135.824 16.245 133.561 13.9801C131.299 11.7152 128.232 10.4425 125.035 10.4413ZM134.621 174.396C134.62 177.605 133.347 180.681 131.084 182.949C128.82 185.217 125.75 186.491 122.549 186.491H62.314C59.1132 186.491 56.0433 185.217 53.7795 182.949C51.5157 180.681 50.2433 177.605 50.2421 174.396V23.6748C50.2421 22.0867 50.5543 20.5142 51.1608 19.0471C51.7672 17.58 52.6562 16.2471 53.7768 15.1244C54.8974 14.0017 56.2278 13.1112 57.6918 12.5039C59.1559 11.8966 60.7249 11.5844 62.3094 11.585H87.5714L87.5991 11.673C88.3383 14.3215 90.02 16.0393 91.8957 16.0393H92.9582C94.834 16.0393 96.5202 14.3169 97.2548 11.6683L97.2871 11.5803H122.54C124.126 11.5785 125.697 11.8902 127.163 12.4974C128.629 13.1047 129.961 13.9957 131.083 15.1194C132.205 16.2432 133.095 17.5776 133.702 19.0464C134.31 20.5152 134.622 22.0896 134.621 23.6794V174.396Z" fill="black" stroke="black" stroke-width="0.471607" stroke-linecap="round" stroke-linejoin="round"/>
<path d="M93.3463 12.1823C93.3454 11.9499 93.2758 11.7229 93.1463 11.5301C93.0168 11.3373 92.8332 11.1873 92.6187 11.099C92.4042 11.0107 92.1684 10.9881 91.9411 11.034C91.7138 11.0799 91.5051 11.1922 91.3415 11.3569C91.1778 11.5216 91.0665 11.7311 91.0216 11.9592C90.9767 12.1872 91.0002 12.4234 91.0892 12.638C91.1781 12.8527 91.3285 13.0361 91.5214 13.1651C91.7143 13.2941 91.941 13.363 92.1729 13.363C92.3273 13.363 92.4803 13.3324 92.623 13.273C92.7657 13.2136 92.8952 13.1266 93.0043 13.0169C93.1133 12.9072 93.1996 12.777 93.2583 12.6338C93.317 12.4905 93.3469 12.3371 93.3463 12.1823Z" fill="white"/>
<path d="M57.7449 16.697C57.7449 17.887 56.4097 18.3176 56.4005 19.2252V19.2807H57.6987V19.6836H55.9708V19.3456C55.9708 18.0676 57.306 17.8222 57.306 16.7063C57.306 16.3034 57.1674 16.0858 56.844 16.0858C56.5206 16.0858 56.382 16.3173 56.382 16.6692V17.0165H55.9708V16.697C55.9708 16.0904 56.2434 15.6922 56.8532 15.6922C57.4631 15.6922 57.7449 16.0904 57.7449 16.697Z" fill="black"/>
<path d="M59.9024 16.6876V16.7895C59.922 16.9569 59.8878 17.1263 59.8047 17.2728C59.7216 17.4194 59.594 17.5356 59.4404 17.6044C59.5953 17.6729 59.7239 17.7897 59.8071 17.9374C59.8904 18.0851 59.9238 18.2557 59.9024 18.424V18.7296C59.9024 19.3316 59.6206 19.7251 59.0108 19.7251C58.4009 19.7251 58.1284 19.3316 58.1284 18.7296V18.4564H58.5395V18.7574C58.5395 19.1093 58.6828 19.3269 59.0015 19.3269C59.3203 19.3269 59.4635 19.1186 59.4635 18.7157V18.4101C59.4635 18.0212 59.2972 17.836 58.9646 17.8267H58.729V17.4285H58.9877C59.0556 17.4295 59.1228 17.4155 59.1847 17.3874C59.2466 17.3594 59.3015 17.3181 59.3456 17.2663C59.3897 17.2146 59.4219 17.1538 59.4399 17.0882C59.4579 17.0226 59.4612 16.9538 59.4497 16.8867V16.7062C59.4497 16.2987 59.3065 16.0903 58.9877 16.0903C58.6689 16.0903 58.5257 16.3126 58.5257 16.6691V16.8682H58.1145V16.6876C58.1145 16.0857 58.3963 15.6967 58.9969 15.6967C59.5975 15.6967 59.9024 16.0857 59.9024 16.6876Z" fill="black"/>
<path d="M60.7525 16.9886V17.535H60.3275V16.9886H60.7525ZM60.7525 19.1417V19.6881H60.3275V19.1417H60.7525Z" fill="black"/>
<path d="M61.6441 17.3452C61.7005 17.2411 61.785 17.155 61.888 17.0968C61.991 17.0387 62.1082 17.0108 62.2263 17.0164C62.7345 17.0164 62.9608 17.3915 62.9608 17.9425V18.7158C62.9608 19.3177 62.6744 19.7113 62.0692 19.7113C61.464 19.7113 61.1868 19.3177 61.1868 18.7158V18.4472H61.5979V18.7435C61.5979 19.0954 61.7458 19.3131 62.0599 19.3131C62.3741 19.3131 62.5219 19.0954 62.5219 18.7435V17.9888C62.5219 17.6323 62.3741 17.4193 62.0599 17.4193C62.0015 17.4141 61.9426 17.4212 61.887 17.44C61.8314 17.4588 61.7803 17.489 61.7369 17.5286C61.6935 17.5682 61.6588 17.6163 61.6348 17.67C61.6109 17.7237 61.5984 17.7818 61.5979 17.8406V17.9332H61.1914L61.2976 15.7338H62.85V16.132H61.6903L61.6441 17.3452Z" fill="black"/>
<path d="M65.1507 16.683V16.7571H64.7395V16.6552C64.7395 16.2987 64.5963 16.0903 64.2775 16.0903C63.9587 16.0903 63.8155 16.308 63.8155 16.7293V17.6137C63.8628 17.4843 63.9502 17.3736 64.065 17.2977C64.1798 17.2219 64.3158 17.1849 64.4531 17.1923C64.9613 17.1923 65.1876 17.5581 65.1876 18.1184V18.7203C65.1876 19.3223 64.8873 19.7159 64.2637 19.7159C63.64 19.7159 63.3397 19.3223 63.3397 18.7203V16.7108C63.3397 16.0857 63.6215 15.6967 64.2637 15.6967C64.9058 15.6967 65.1507 16.0811 65.1507 16.683ZM63.7924 18.1647V18.7574C63.7924 19.1093 63.9403 19.3269 64.2544 19.3269C64.5686 19.3269 64.7164 19.1093 64.7164 18.7574V18.1647C64.7164 17.8082 64.5639 17.5952 64.2544 17.5952C63.9449 17.5952 63.7924 17.8082 63.7924 18.1647Z" fill="black"/>
<path d="M108.195 16.8591H107.081V19.6465H108.195V16.8591Z" fill="black"/>
<path d="M109.678 16.2988H108.564V19.6466H109.678V16.2988Z" fill="black"/>
<path d="M111.166 15.9005H110.052V19.6464H111.166V15.9005Z" fill="black"/>
<path d="M112.649 15.2107H111.535V19.6465H112.649V15.2107Z" fill="black"/>
<path d="M126.421 19.5725H119.754V15.4792H126.43L126.421 19.5725ZM120.114 19.1974H126.051V15.8497H120.114V19.1974Z" fill="black"/>
<path d="M124.198 16.257H120.673V18.7944H124.198V16.257Z" fill="black"/>
<path d="M127.035 17.0443H126.194V18.0074H127.035V17.0443Z" fill="black"/>
<path d="M117.296 18.6788C117.251 18.6798 117.206 18.6686 117.167 18.6464C115.809 17.8361 114.908 18.5862 114.857 18.6186C114.81 18.665 114.747 18.691 114.681 18.691C114.616 18.691 114.552 18.665 114.506 18.6186C114.464 18.5683 114.442 18.5036 114.447 18.438C114.451 18.3725 114.48 18.3111 114.529 18.2667C114.575 18.2251 115.725 17.2388 117.407 18.239C117.435 18.2557 117.46 18.2778 117.48 18.3041C117.499 18.3303 117.514 18.3602 117.522 18.3921C117.53 18.4239 117.532 18.457 117.527 18.4895C117.522 18.522 117.512 18.5533 117.495 18.5816C117.472 18.6123 117.442 18.6371 117.407 18.654C117.373 18.6709 117.335 18.6794 117.296 18.6788Z" fill="black"/>
<path d="M117.795 17.8406C117.751 17.842 117.707 17.829 117.67 17.8036C115.702 16.6321 114.381 17.7665 114.367 17.7758C114.32 17.8222 114.257 17.8482 114.192 17.8482C114.126 17.8482 114.063 17.8222 114.016 17.7758C113.974 17.7247 113.952 17.6593 113.957 17.5929C113.961 17.5265 113.99 17.4644 114.039 17.4193C114.039 17.4193 115.651 16.0302 117.925 17.4193C117.971 17.4477 118.006 17.4905 118.026 17.5411C118.046 17.5917 118.049 17.6473 118.034 17.6997C118.019 17.752 117.988 17.7981 117.945 17.8311C117.902 17.864 117.849 17.882 117.795 17.8823V17.8406Z" fill="black"/>
<path d="M118.253 16.8683C118.208 16.8674 118.165 16.8546 118.128 16.8312C115.638 15.3495 113.97 16.7432 113.914 16.8034C113.891 16.8271 113.863 16.8459 113.833 16.8587C113.802 16.8715 113.77 16.8781 113.737 16.8781C113.703 16.8781 113.671 16.8715 113.64 16.8587C113.61 16.8459 113.582 16.8271 113.559 16.8034C113.516 16.7531 113.495 16.6884 113.5 16.6228C113.504 16.5572 113.533 16.4959 113.582 16.4515C113.605 16.4515 115.568 14.7476 118.382 16.4237C118.438 16.4583 118.478 16.5134 118.495 16.5773C118.511 16.6412 118.502 16.709 118.47 16.7664C118.444 16.7997 118.411 16.8263 118.374 16.8441C118.336 16.8618 118.294 16.8701 118.253 16.8683Z" fill="black"/>
<path d="M116.543 19.1002C116.543 19.2249 116.506 19.3468 116.437 19.4505C116.368 19.5542 116.269 19.6349 116.154 19.6824C116.039 19.7299 115.913 19.7421 115.791 19.7174C115.669 19.6928 115.557 19.6323 115.469 19.5438C115.381 19.4553 115.322 19.3426 115.298 19.2202C115.274 19.0977 115.287 18.9709 115.336 18.856C115.384 18.741 115.465 18.6429 115.569 18.5743C115.673 18.5057 115.795 18.4695 115.919 18.4704C116.002 18.4704 116.083 18.4868 116.159 18.5185C116.235 18.5502 116.304 18.5966 116.362 18.6552C116.42 18.7137 116.466 18.7832 116.497 18.8595C116.528 18.9359 116.544 19.0177 116.543 19.1002Z" fill="black"/>
<path d="M119.417 175.971L121.667 173.716C121.789 173.584 121.856 173.41 121.853 173.23C121.849 173.05 121.777 172.879 121.65 172.751C121.523 172.624 121.351 172.551 121.172 172.548C120.992 172.545 120.819 172.612 120.687 172.734L118.437 174.989L116.187 172.734C116.058 172.603 115.881 172.53 115.697 172.529C115.513 172.529 115.336 172.602 115.206 172.732C115.075 172.862 115.002 173.039 115.001 173.223C115.001 173.408 115.073 173.585 115.203 173.716L117.444 175.971L115.189 178.226C115.061 178.357 114.989 178.533 114.989 178.717C114.989 178.9 115.061 179.077 115.189 179.207C115.32 179.338 115.497 179.411 115.682 179.411C115.866 179.411 116.043 179.338 116.174 179.207L118.423 176.952L120.673 179.207C120.737 179.273 120.813 179.324 120.898 179.359C120.982 179.394 121.072 179.412 121.163 179.411C121.254 179.412 121.345 179.395 121.429 179.36C121.513 179.325 121.589 179.273 121.653 179.207C121.718 179.143 121.769 179.067 121.804 178.983C121.839 178.898 121.857 178.808 121.857 178.717C121.857 178.625 121.839 178.535 121.804 178.451C121.769 178.366 121.718 178.29 121.653 178.226L119.417 175.971Z" fill="black"/>
<path d="M64.2128 148.596V144.036L64.0511 144.1L63.7832 144.179L63.5152 144.253C63.4582 144.267 63.4025 144.285 63.3489 144.309V143.591L63.5891 143.494L63.8987 143.35C64.0043 143.299 64.1062 143.24 64.2036 143.174C64.2885 143.116 64.3661 143.048 64.4346 142.971H65.1691V148.596H64.2128Z" fill="black"/>
<path d="M90.0939 148.596V147.92L91.4799 145.772C91.5815 145.614 91.6785 145.466 91.7663 145.309C91.8589 145.164 91.9333 145.009 91.9881 144.846C92.0486 144.681 92.0783 144.507 92.0758 144.332C92.0828 144.17 92.0444 144.01 91.965 143.869C91.9266 143.813 91.8745 143.769 91.8137 143.739C91.753 143.71 91.6857 143.697 91.6185 143.702C91.5552 143.698 91.4918 143.707 91.4322 143.729C91.3726 143.75 91.3181 143.784 91.272 143.827C91.1857 143.917 91.1264 144.029 91.101 144.151C91.0692 144.304 91.0537 144.459 91.0548 144.614V144.855H90.1308V144.605C90.1242 144.305 90.176 144.006 90.2833 143.725C90.3713 143.483 90.5329 143.274 90.7453 143.128C90.9956 142.98 91.2818 142.905 91.5723 142.91C91.7697 142.894 91.9684 142.92 92.1549 142.987C92.3414 143.054 92.5113 143.161 92.6533 143.299C92.9082 143.6 93.0373 143.989 93.0137 144.383C93.0164 144.597 92.9836 144.809 92.9167 145.013C92.8502 145.201 92.7635 145.381 92.658 145.55C92.5532 145.723 92.4377 145.898 92.3115 146.078L91.1611 147.828H92.8658V148.596H90.0939Z" fill="black"/>
<path d="M117.13 148.68C116.834 148.693 116.541 148.626 116.28 148.485C116.069 148.352 115.906 148.154 115.818 147.92C115.716 147.65 115.668 147.362 115.675 147.073V146.879H116.599V147.041C116.6 147.196 116.617 147.351 116.649 147.504C116.669 147.613 116.723 147.713 116.802 147.791C116.893 147.86 117.006 147.894 117.121 147.888C117.178 147.892 117.236 147.885 117.291 147.867C117.345 147.849 117.396 147.82 117.439 147.782C117.519 147.697 117.571 147.591 117.587 147.476C117.612 147.323 117.624 147.168 117.624 147.013C117.634 146.78 117.588 146.548 117.49 146.337C117.435 146.25 117.357 146.18 117.265 146.133C117.173 146.087 117.071 146.066 116.968 146.073H116.806V145.272H116.982C117.08 145.281 117.178 145.267 117.269 145.232C117.36 145.196 117.442 145.14 117.509 145.068C117.62 144.875 117.67 144.652 117.652 144.429C117.66 144.238 117.623 144.048 117.546 143.874C117.503 143.805 117.442 143.749 117.369 143.714C117.296 143.679 117.215 143.665 117.134 143.674C117.053 143.666 116.971 143.683 116.899 143.722C116.827 143.762 116.769 143.823 116.733 143.897C116.66 144.079 116.624 144.274 116.626 144.471V144.679H115.702V144.411C115.694 144.13 115.751 143.851 115.869 143.596C115.977 143.376 116.152 143.196 116.368 143.082C116.612 142.957 116.884 142.896 117.158 142.906C117.436 142.896 117.712 142.955 117.961 143.077C118.175 143.19 118.348 143.366 118.456 143.582C118.576 143.833 118.634 144.109 118.627 144.388C118.627 144.687 118.537 144.979 118.368 145.226C118.249 145.428 118.057 145.577 117.832 145.642C117.98 145.689 118.113 145.772 118.22 145.883C118.341 146.015 118.429 146.174 118.479 146.346C118.549 146.561 118.581 146.787 118.576 147.013C118.58 147.315 118.531 147.616 118.433 147.902C118.348 148.147 118.186 148.359 117.971 148.504C117.713 148.643 117.421 148.704 117.13 148.68Z" fill="black"/>
<path d="M64.6794 158.57V157.181H63.0024V156.361L64.4623 152.935H65.5803V156.417H66.1624V157.181H65.5896V158.57H64.6794ZM63.8062 156.426H64.6794V153.981L63.8062 156.426Z" fill="black"/>
<path d="M91.5723 158.653C91.2686 158.672 90.9663 158.599 90.7037 158.445C90.4965 158.306 90.3458 158.098 90.2787 157.857C90.192 157.566 90.1515 157.263 90.1586 156.959H91.0826C91.0795 157.128 91.0919 157.297 91.1195 157.463C91.1339 157.589 91.1872 157.708 91.272 157.801C91.315 157.845 91.3673 157.878 91.425 157.898C91.4826 157.918 91.544 157.925 91.6046 157.917C91.6711 157.924 91.7381 157.913 91.799 157.885C91.8599 157.858 91.9123 157.814 91.9511 157.76C92.0249 157.626 92.0675 157.477 92.0758 157.325C92.0758 157.135 92.1036 156.917 92.1036 156.667C92.1069 156.477 92.0946 156.286 92.0666 156.098C92.0523 155.96 92.0012 155.829 91.9188 155.718C91.8747 155.671 91.8207 155.634 91.7607 155.611C91.7008 155.588 91.6364 155.579 91.5723 155.584C91.5107 155.583 91.4495 155.594 91.3924 155.617C91.3353 155.64 91.2833 155.674 91.2396 155.718C91.1464 155.82 91.0798 155.945 91.0456 156.079H90.2186L90.2741 152.944H92.7966V153.806H91.0826L91.0271 155.162C91.1068 155.068 91.2106 154.998 91.3274 154.958C91.4755 154.904 91.6316 154.874 91.7894 154.87C92.0439 154.845 92.2993 154.91 92.5101 155.056C92.7048 155.211 92.8469 155.423 92.9167 155.662C93.0095 155.962 93.0547 156.275 93.0507 156.588C93.0531 156.863 93.033 157.137 92.9906 157.408C92.9599 157.636 92.8862 157.856 92.7735 158.056C92.6638 158.24 92.5033 158.388 92.3115 158.482C92.0827 158.599 91.8289 158.658 91.5723 158.653Z" fill="black"/>
<path d="M117.162 158.653C116.861 158.666 116.564 158.58 116.317 158.408C116.101 158.238 115.94 158.008 115.855 157.746C115.755 157.447 115.705 157.135 115.707 156.82V154.847C115.703 154.513 115.745 154.179 115.832 153.856C115.906 153.579 116.068 153.334 116.294 153.157C116.553 152.972 116.868 152.882 117.185 152.903C117.462 152.89 117.738 152.946 117.989 153.065C118.19 153.163 118.353 153.326 118.451 153.528C118.554 153.77 118.603 154.033 118.594 154.296C118.594 154.296 118.594 154.324 118.594 154.343C118.597 154.358 118.597 154.374 118.594 154.389H117.67C117.681 154.197 117.651 154.004 117.583 153.824C117.544 153.758 117.486 153.705 117.417 153.672C117.348 153.639 117.27 153.627 117.195 153.639C117.141 153.636 117.088 153.645 117.038 153.664C116.987 153.683 116.942 153.712 116.903 153.75C116.816 153.852 116.759 153.977 116.742 154.111C116.7 154.335 116.682 154.564 116.686 154.792V155.463C116.759 155.352 116.861 155.264 116.982 155.208C117.174 155.132 117.381 155.102 117.587 155.122C117.792 155.141 117.99 155.209 118.165 155.32C118.346 155.468 118.479 155.668 118.544 155.894C118.621 156.168 118.659 156.452 118.654 156.736C118.659 157.069 118.612 157.4 118.516 157.718C118.435 157.988 118.274 158.227 118.054 158.403C117.794 158.587 117.479 158.675 117.162 158.653ZM117.162 157.908C117.219 157.912 117.276 157.903 117.329 157.881C117.382 157.859 117.429 157.826 117.467 157.783C117.545 157.682 117.596 157.562 117.615 157.436C117.645 157.264 117.659 157.091 117.657 156.917C117.657 156.713 117.657 156.528 117.633 156.371C117.624 156.234 117.579 156.101 117.504 155.986C117.462 155.937 117.408 155.899 117.348 155.875C117.287 155.851 117.222 155.841 117.158 155.847C117.083 155.846 117.009 155.861 116.94 155.889C116.876 155.918 116.817 155.957 116.765 156.005C116.721 156.046 116.682 156.093 116.649 156.144V157.028C116.65 157.174 116.665 157.32 116.696 157.463C116.72 157.584 116.776 157.696 116.857 157.788C116.898 157.828 116.946 157.859 117 157.879C117.053 157.899 117.11 157.907 117.167 157.903L117.162 157.908Z" fill="black"/>
<path d="M63.64 168.544L64.7765 163.654H63.2565V162.918H65.7005V163.506L64.5686 168.544H63.64Z" fill="black"/>
<path d="M91.5307 168.618C91.2296 168.633 90.9308 168.559 90.6714 168.405C90.4547 168.261 90.2921 168.05 90.2094 167.803C90.112 167.515 90.0651 167.213 90.0708 166.909C90.0683 166.754 90.0822 166.599 90.1124 166.446C90.1401 166.316 90.1852 166.19 90.2463 166.071C90.301 165.963 90.3728 165.865 90.4589 165.779C90.5402 165.693 90.6354 165.621 90.7407 165.566C90.5678 165.445 90.4242 165.287 90.3203 165.103C90.1997 164.866 90.1394 164.602 90.1447 164.335C90.1388 164.063 90.1892 163.794 90.2925 163.543C90.3855 163.325 90.548 163.144 90.7545 163.029C90.9928 162.901 91.2606 162.839 91.5307 162.848C91.8009 162.838 92.069 162.9 92.3068 163.029C92.5123 163.146 92.6744 163.326 92.7688 163.543C92.8749 163.793 92.9239 164.063 92.9121 164.335C92.9192 164.603 92.8605 164.868 92.7411 165.108C92.6425 165.293 92.5016 165.451 92.3299 165.571C92.4366 165.626 92.5334 165.698 92.6164 165.784C92.701 165.869 92.7712 165.968 92.8243 166.076C92.8854 166.194 92.9305 166.32 92.9583 166.451C92.9901 166.603 93.0055 166.758 93.0045 166.914C93.0148 167.218 92.9677 167.521 92.8659 167.808C92.7816 168.053 92.6193 168.265 92.4039 168.409C92.1398 168.564 91.8359 168.637 91.5307 168.618ZM91.5307 167.891C91.5945 167.896 91.6587 167.886 91.718 167.862C91.7774 167.838 91.8303 167.8 91.8726 167.752C91.9551 167.651 92.0079 167.529 92.025 167.4C92.0476 167.256 92.0584 167.111 92.0574 166.965C92.0637 166.81 92.0529 166.654 92.025 166.502C92.0022 166.372 91.9483 166.25 91.8679 166.145C91.826 166.098 91.7738 166.061 91.7153 166.037C91.6569 166.013 91.5937 166.002 91.5307 166.006C91.469 166.002 91.4072 166.013 91.3503 166.037C91.2933 166.061 91.2428 166.098 91.2027 166.145C91.1209 166.247 91.0653 166.368 91.041 166.497C91.0123 166.65 90.9983 166.805 90.9994 166.96C90.9977 167.108 91.0101 167.255 91.0364 167.4C91.055 167.53 91.1094 167.652 91.1934 167.752C91.2338 167.803 91.2851 167.844 91.3435 167.872C91.4019 167.9 91.4659 167.914 91.5307 167.914V167.891ZM91.5307 165.201C91.5822 165.202 91.6332 165.192 91.6803 165.171C91.7274 165.15 91.7694 165.119 91.8033 165.08C91.8788 164.99 91.9283 164.881 91.9465 164.765C91.9761 164.613 91.99 164.458 91.9881 164.302C91.9958 164.122 91.9609 163.943 91.8864 163.779C91.8531 163.715 91.8016 163.661 91.7384 163.626C91.6752 163.591 91.6029 163.575 91.5307 163.58C91.4585 163.575 91.3865 163.591 91.3234 163.627C91.2603 163.662 91.2087 163.715 91.175 163.779C91.0915 163.937 91.0517 164.115 91.0595 164.293C91.0569 164.449 91.0724 164.604 91.1057 164.756C91.1243 164.874 91.1755 164.985 91.2535 165.076C91.2882 165.115 91.3309 165.146 91.3787 165.168C91.4265 165.19 91.4783 165.201 91.5307 165.201Z" fill="black"/>
<path d="M91.5307 178.393C91.2456 178.406 90.963 178.335 90.7175 178.189C90.5019 178.049 90.333 177.847 90.2325 177.61C90.1187 177.342 90.0635 177.053 90.0708 176.763V174.267C90.0641 173.972 90.1176 173.679 90.2278 173.406C90.3173 173.169 90.4789 172.966 90.6898 172.827C90.9442 172.69 91.2283 172.619 91.5168 172.619C91.8054 172.619 92.0894 172.69 92.3438 172.827C92.5532 172.968 92.7145 173.17 92.8058 173.406C92.9139 173.68 92.9673 173.972 92.9628 174.267V176.763C92.9686 177.054 92.9119 177.343 92.7965 177.61C92.696 177.847 92.5271 178.049 92.3114 178.189C92.0753 178.329 91.8048 178.399 91.5307 178.393ZM91.5307 177.568C91.5901 177.572 91.6497 177.563 91.705 177.54C91.7602 177.518 91.8096 177.483 91.8494 177.439C91.9212 177.344 91.9687 177.232 91.988 177.115C92.0118 176.994 92.0241 176.872 92.025 176.749V174.281C92.0232 174.152 92.0124 174.024 91.9927 173.897C91.9749 173.779 91.9289 173.668 91.8587 173.572C91.8179 173.527 91.767 173.491 91.71 173.469C91.6531 173.446 91.5916 173.437 91.5307 173.443C91.4704 173.437 91.4096 173.446 91.3534 173.469C91.2972 173.491 91.2471 173.527 91.2073 173.572C91.1356 173.668 91.088 173.779 91.0687 173.897C91.0504 174.024 91.0412 174.152 91.041 174.281V176.749C91.0395 176.872 91.0519 176.994 91.0779 177.115C91.0988 177.233 91.1479 177.344 91.2211 177.439C91.2593 177.483 91.3071 177.517 91.3608 177.54C91.4145 177.562 91.4726 177.572 91.5307 177.568Z" fill="black"/>
<path d="M117.065 168.618C116.789 168.628 116.515 168.571 116.266 168.451C116.061 168.346 115.898 168.175 115.804 167.965C115.701 167.719 115.652 167.454 115.661 167.187V167.113H116.585C116.575 167.304 116.607 167.495 116.677 167.673C116.718 167.74 116.777 167.794 116.848 167.828C116.918 167.861 116.997 167.874 117.074 167.863C117.128 167.866 117.182 167.858 117.232 167.839C117.282 167.82 117.328 167.79 117.365 167.752C117.449 167.645 117.502 167.517 117.518 167.382C117.555 167.16 117.572 166.935 117.569 166.71V166.034C117.499 166.145 117.398 166.232 117.278 166.284C117.132 166.347 116.975 166.381 116.816 166.381C116.56 166.399 116.306 166.325 116.1 166.173C115.917 166.016 115.785 165.808 115.721 165.576C115.64 165.301 115.601 165.015 115.605 164.728C115.598 164.398 115.647 164.07 115.748 163.756C115.831 163.493 115.992 163.262 116.21 163.094C116.463 162.925 116.762 162.84 117.065 162.853C117.365 162.838 117.662 162.921 117.911 163.089C118.126 163.25 118.288 163.473 118.373 163.728C118.474 164.026 118.524 164.339 118.52 164.654V166.645C118.525 166.982 118.482 167.317 118.391 167.641C118.316 167.919 118.154 168.166 117.929 168.345C117.681 168.532 117.376 168.629 117.065 168.618ZM117.065 165.654C117.177 165.661 117.287 165.626 117.375 165.557C117.447 165.498 117.51 165.428 117.56 165.349V164.474C117.561 164.326 117.547 164.179 117.518 164.034C117.497 163.916 117.446 163.806 117.37 163.714C117.331 163.672 117.283 163.639 117.229 163.617C117.176 163.596 117.118 163.586 117.061 163.589C117.004 163.586 116.948 163.595 116.896 163.617C116.844 163.639 116.797 163.672 116.76 163.714C116.679 163.814 116.626 163.934 116.608 164.062C116.578 164.234 116.564 164.41 116.566 164.585C116.565 164.766 116.575 164.947 116.594 165.127C116.599 165.264 116.642 165.397 116.719 165.511C116.761 165.562 116.815 165.602 116.876 165.627C116.937 165.652 117.004 165.662 117.07 165.654H117.065Z" fill="black"/>
<path d="M85.2014 122.741V117.115H87.5575V117.837H86.227V119.453H87.2757V120.171H86.227V122.023H87.5714V122.731L85.2014 122.741Z" fill="#3382EB"/>
<path d="M88.1674 122.741V117.115H88.8834L90.2463 120.324V117.115H91.1103V122.741H90.4311L89.0451 119.379V122.741H88.1674Z" fill="#3382EB"/>
<path d="M92.4963 122.741V117.87H91.6046V117.115H94.4043V117.87H93.5219V122.741H92.4963Z" fill="#3382EB"/>
<path d="M94.9263 122.741V117.115H97.2825V117.837H95.952V119.453H96.9961V120.171H95.952V122.023H97.2964V122.731L94.9263 122.741Z" fill="#3382EB"/>
<path d="M97.8923 122.741V117.115H99.2367C99.5623 117.106 99.8871 117.151 100.198 117.249C100.444 117.329 100.655 117.493 100.794 117.712C100.942 117.984 101.012 118.292 100.997 118.601C100.999 118.807 100.977 119.012 100.932 119.212C100.898 119.38 100.827 119.538 100.724 119.675C100.615 119.81 100.471 119.912 100.309 119.972L101.094 122.75H100.068L99.3892 120.171H98.9272V122.75L97.8923 122.741ZM98.918 119.5H99.2367C99.3952 119.503 99.5525 119.473 99.6987 119.412C99.8129 119.353 99.9017 119.254 99.9482 119.134C100.005 118.976 100.031 118.81 100.027 118.643C100.044 118.42 99.9886 118.198 99.8697 118.009C99.7953 117.928 99.7028 117.867 99.5999 117.83C99.497 117.793 99.3867 117.781 99.2783 117.796H98.9041L98.918 119.5Z" fill="#3382EB"/>
<path d="M71.3553 41.6359L70.3759 36.7602H71.1613L71.8034 40.2098L72.404 36.7602H73.2079L72.2285 41.6359H71.3553Z" fill="black"/>
<path d="M73.7068 41.6359V36.7602H75.7489V37.3853H74.5985V38.7744H75.5225V39.3948H74.5985V41.0432H75.7627V41.6544L73.7068 41.6359Z" fill="black"/>
<path d="M76.2755 41.6359V36.7601H77.4444C77.7263 36.7539 78.0073 36.7946 78.276 36.8805C78.4897 36.9484 78.6728 37.0893 78.7934 37.2787C78.921 37.514 78.9817 37.7799 78.969 38.0474C78.9711 38.2264 78.9525 38.4051 78.9135 38.5799C78.8829 38.7241 78.8214 38.86 78.7333 38.9781C78.6384 39.0951 78.514 39.1846 78.373 39.2374L79.0521 41.6359H78.1743L77.583 39.4041H77.1764V41.6359H76.2755ZM77.1672 38.8577H77.4444C77.5853 38.8648 77.7259 38.8394 77.8555 38.7836C77.9565 38.7348 78.0344 38.6484 78.0727 38.5428C78.1213 38.4063 78.1433 38.2617 78.1374 38.1168C78.1513 37.9236 78.1044 37.7309 78.0034 37.5658C77.9381 37.4974 77.8576 37.4454 77.7685 37.4141C77.6794 37.3827 77.5842 37.3728 77.4906 37.3852H77.1672V38.8577Z" fill="black"/>
<path d="M79.6574 41.6359V36.7602H80.5352V41.6359H79.6574Z" fill="black"/>
<path d="M81.2882 41.6359V36.7602H83.2887V37.376H82.1752V38.7975H83.0992V39.418H82.1752V41.6359H81.2882Z" fill="black"/>
<path d="M83.7737 41.6359V36.7602H84.6423V41.6359H83.7737Z" fill="black"/>
<path d="M86.712 41.7053C86.4167 41.7207 86.1237 41.6465 85.8712 41.4923C85.6702 41.3541 85.522 41.1517 85.4508 40.9181C85.3649 40.6473 85.3243 40.3641 85.3306 40.0801V38.3391C85.3235 38.0458 85.364 37.7533 85.4508 37.4732C85.5186 37.2404 85.6679 37.0398 85.8712 36.9083C86.1261 36.7613 86.4184 36.6921 86.712 36.7092C86.9859 36.6949 87.2586 36.7541 87.502 36.8805C87.6895 36.9915 87.8319 37.1654 87.904 37.3713C87.9894 37.6071 88.0301 37.8568 88.0241 38.1075V38.5196H87.174V38.0983C87.1816 37.9734 87.1816 37.8481 87.174 37.7232C87.1655 37.6235 87.1249 37.5293 87.0585 37.4547C87.0146 37.4178 86.9638 37.3901 86.909 37.3734C86.8542 37.3567 86.7967 37.3513 86.7397 37.3574C86.6192 37.3479 86.4998 37.3862 86.4071 37.4639C86.3333 37.5418 86.285 37.6403 86.2685 37.7464C86.2489 37.8782 86.2396 38.0113 86.2408 38.1446V40.2653C86.2379 40.4115 86.2518 40.5575 86.2824 40.7005C86.3029 40.8016 86.3566 40.8928 86.4348 40.9598C86.5229 41.0243 86.6309 41.0555 86.7397 41.0478C86.7966 41.0535 86.8541 41.0469 86.9083 41.0285C86.9625 41.0102 87.0121 40.9804 87.0539 40.9413C87.1222 40.8642 87.1628 40.7664 87.1694 40.6635C87.1888 40.5332 87.1981 40.4016 87.1971 40.2699V39.8069H88.0472V40.2004C88.051 40.4609 88.0136 40.7204 87.9363 40.9691C87.8631 41.1829 87.7219 41.3667 87.5344 41.4923C87.2876 41.6439 87.0012 41.7181 86.712 41.7053Z" fill="black"/>
<path d="M88.3983 41.6359L89.3685 36.7602H90.3202L91.2904 41.6359H90.4681L90.2786 40.5108H89.4286L89.2345 41.6359H88.3983ZM89.521 39.9459H90.1862L89.8536 37.8993L89.521 39.9459Z" fill="black"/>
<path d="M92.0343 41.6359V37.4177H91.2581V36.7602H93.6836V37.4177H92.9213V41.6359H92.0343Z" fill="black"/>
<path d="M94.1548 41.6359V36.7602H95.0326V41.6359H94.1548Z" fill="black"/>
<path d="M97.1162 41.7052C96.8292 41.7199 96.544 41.6524 96.2938 41.5108C96.0893 41.3804 95.9346 41.1846 95.855 40.9551C95.7656 40.685 95.7234 40.4015 95.7302 40.117V38.2649C95.7243 37.9767 95.7697 37.6898 95.8642 37.4176C95.9399 37.1949 96.0879 37.0042 96.2846 36.8758C96.5366 36.7397 96.8211 36.6756 97.107 36.6906C97.3958 36.6751 97.6834 36.7392 97.9386 36.8758C98.1401 37.0012 98.2945 37.1901 98.3774 37.4129C98.4694 37.6872 98.5116 37.9757 98.5022 38.2649V40.117C98.5073 40.4052 98.462 40.692 98.3682 40.9644C98.2855 41.1909 98.1314 41.3843 97.9293 41.5154C97.6809 41.6526 97.3995 41.7183 97.1162 41.7052ZM97.1162 41.0477C97.2339 41.0586 97.3513 41.0238 97.4442 40.9505C97.5182 40.8802 97.5669 40.7875 97.5828 40.6866C97.6075 40.5662 97.6199 40.4436 97.6198 40.3208V38.0751C97.6203 37.9506 97.6079 37.8265 97.5828 37.7046C97.565 37.6071 97.5164 37.5178 97.4442 37.45C97.3518 37.3745 97.2353 37.335 97.1162 37.3388C97.0024 37.3312 96.8895 37.364 96.7974 37.4314C96.7235 37.4986 96.6733 37.588 96.6542 37.6861C96.6268 37.8076 96.6144 37.932 96.6172 38.0565V40.3022C96.6157 40.425 96.6266 40.5475 96.6496 40.668C96.6667 40.7695 96.7171 40.8624 96.7928 40.932C96.8825 41.0091 96.9982 41.0489 97.1162 41.0431V41.0477Z" fill="black"/>
<path d="M99.1675 41.6359V36.7602H99.7866L100.969 39.5384V36.7602H101.699V41.6359H101.112L99.9252 38.7281V41.6406L99.1675 41.6359Z" fill="black"/>
<path d="M105.206 41.7054C104.912 41.7202 104.621 41.646 104.37 41.4924C104.169 41.3542 104.02 41.1518 103.949 40.9183C103.862 40.6477 103.819 40.3645 103.824 40.0802V38.3392C103.819 38.0457 103.861 37.7532 103.949 37.4733C104.017 37.2405 104.166 37.04 104.37 36.9084C104.623 36.7618 104.914 36.6926 105.206 36.7093C105.48 36.6939 105.753 36.7531 105.996 36.8806C106.185 36.9908 106.329 37.1647 106.402 37.3714C106.488 37.6072 106.528 37.8569 106.522 38.1077V38.5198H105.672V38.0984C105.672 37.973 105.665 37.8478 105.649 37.7233C105.641 37.6237 105.6 37.5294 105.534 37.4548C105.49 37.4179 105.439 37.3903 105.384 37.3735C105.33 37.3568 105.272 37.3514 105.215 37.3575C105.094 37.3481 104.975 37.3863 104.882 37.464C104.807 37.5406 104.758 37.6397 104.744 37.7465C104.724 37.8783 104.715 38.0114 104.716 38.1447V40.2654C104.713 40.4116 104.727 40.5576 104.758 40.7006C104.778 40.8017 104.832 40.8929 104.91 40.9599C104.998 41.0244 105.106 41.0556 105.215 41.0479C105.272 41.0536 105.329 41.047 105.384 41.0286C105.438 41.0103 105.487 40.9805 105.529 40.9414C105.595 40.8626 105.635 40.7657 105.645 40.6636C105.664 40.5333 105.673 40.4017 105.672 40.27V39.807H106.522V40.2006C106.527 40.4615 106.488 40.7213 106.407 40.9692C106.337 41.1835 106.197 41.3679 106.01 41.4924C105.768 41.6403 105.489 41.7143 105.206 41.7054Z" fill="black"/>
<path d="M108.463 41.7053C108.176 41.7195 107.891 41.652 107.64 41.5109C107.436 41.3805 107.281 41.1847 107.202 40.9552C107.109 40.681 107.065 40.3926 107.072 40.1032V38.265C107.065 37.9771 107.109 37.6902 107.202 37.4176C107.283 37.194 107.438 37.0046 107.64 36.8805C107.899 36.7587 108.182 36.6956 108.467 36.6956C108.753 36.6956 109.036 36.7587 109.294 36.8805C109.497 37.0046 109.652 37.194 109.733 37.4176C109.83 37.6893 109.876 37.9767 109.867 38.265V40.1171C109.875 40.4054 109.829 40.6926 109.733 40.9645C109.652 41.1921 109.498 41.386 109.294 41.5155C109.041 41.6561 108.752 41.7219 108.463 41.7053ZM108.463 41.0478C108.581 41.0587 108.698 41.0239 108.791 40.9506C108.863 40.8785 108.913 40.7868 108.934 40.6867C108.957 40.5661 108.968 40.4436 108.966 40.3209V38.0752C108.968 37.9509 108.958 37.8268 108.934 37.7047C108.912 37.6077 108.862 37.5193 108.791 37.4501C108.694 37.3893 108.582 37.357 108.467 37.357C108.353 37.357 108.241 37.3893 108.144 37.4501C108.07 37.5172 108.02 37.6066 108.001 37.7047C107.976 37.8266 107.963 37.9507 107.964 38.0752V40.3209C107.965 40.4435 107.975 40.5658 107.996 40.6867C108.013 40.7881 108.064 40.881 108.139 40.9506C108.232 41.0211 108.347 41.0541 108.463 41.0432V41.0478Z" fill="black"/>
<path d="M110.514 41.6359V36.7602H111.66C111.976 36.7467 112.291 36.802 112.584 36.9222C112.792 37.0283 112.956 37.2057 113.046 37.4223C113.147 37.6962 113.194 37.9871 113.184 38.2789V40.0616C113.193 40.3609 113.146 40.6592 113.046 40.9414C112.962 41.1671 112.797 41.3536 112.584 41.4646C112.303 41.5924 111.996 41.6512 111.688 41.6359H110.514ZM111.401 41.0154H111.674C111.828 41.0304 111.982 40.9929 112.113 40.9089C112.206 40.8296 112.264 40.7164 112.274 40.5941C112.294 40.4251 112.304 40.2549 112.302 40.0847V38.2326C112.305 38.0772 112.291 37.922 112.26 37.7696C112.251 37.7163 112.231 37.6654 112.202 37.62C112.173 37.5746 112.134 37.5357 112.09 37.5057C111.956 37.4408 111.808 37.412 111.66 37.4223H111.401V41.0154Z" fill="black"/>
<path d="M113.868 41.6359V36.7602H115.91V37.3853H114.755V38.7744H115.679V39.3948H114.755V41.0432H115.924V41.6544L113.868 41.6359Z" fill="black"/>
<path d="M179.721 3.27356V26.064" stroke="black" stroke-width="0.471607" stroke-linecap="round" stroke-linejoin="round" stroke-dasharray="2.36 2.36"/>
<path d="M179.717 64.9681V84.1654C179.72 85.6754 179.426 87.1712 178.852 88.5673C178.278 89.9634 177.435 91.2324 176.371 92.3019C175.307 93.3713 174.044 94.2202 172.653 94.8C171.262 95.3799 169.77 95.6792 168.264 95.6811H144.138" stroke="black" stroke-width="0.471607" stroke-linecap="round" stroke-linejoin="round" stroke-dasharray="2.36 2.36"/>
<path d="M144.984 92.7731L139.999 95.6578L144.984 98.5471V92.7731Z" fill="black"/>
<path d="M205.286 36.2745L164.288 27.8177L158.247 57.2334L199.245 65.6903L205.286 36.2745Z" fill="black"/>
<path d="M203.168 33.5409L162.17 25.084L156.129 54.4997L197.127 62.9566L203.168 33.5409Z" fill="white" stroke="black" stroke-width="0.471607" stroke-miterlimit="10"/>
<path d="M162.17 25.0779L179.647 44.0159L203.167 33.5375" stroke="black" stroke-width="0.471607" stroke-linecap="round" stroke-linejoin="round"/>
<path d="M173.267 190.677C173.267 190.677 165.256 179.953 155.258 172.544C145.261 165.136 136.686 162.08 134.33 162.788C131.974 163.497 129.909 165.775 129.909 165.775L101.972 193.89C101.972 193.89 92.7549 201.183 91.7386 201.822C90.7222 202.461 85.9636 205.434 83.0484 206.35C80.1332 207.267 75.3608 207.124 75.3377 208.013C75.3146 208.902 75.9568 209.587 77.3797 210.189C80.0248 211.232 82.8202 211.842 85.6587 211.995C87.8238 212.032 89.9773 212.321 92.0758 212.856C93.0691 213.106 95.9196 214.416 96.6172 213.319C97.3148 212.222 98.2804 205.91 98.5207 205.248C98.7609 204.586 107.617 198.173 113.817 195.131C120.017 192.089 127.608 187.084 129.793 184.699C131.978 182.314 135.194 178.629 135.194 178.629C135.194 178.629 145.131 188.051 148.555 192.496C151.978 196.942 157.476 202.447 167.446 207.087C177.416 211.726 181.084 207.943 181.768 204.174C182.451 200.405 173.267 190.677 173.267 190.677Z" fill="white" stroke="black" stroke-width="0.471607" stroke-linecap="round" stroke-linejoin="round"/>
<path d="M155.258 172.544C145.256 165.136 136.686 162.08 134.33 162.788C131.974 163.497 129.909 165.775 129.909 165.775L102.3 193.557C102.9 195.238 104.263 197.405 107.382 198.826C109.464 197.48 111.615 196.243 113.827 195.122C120.027 192.075 127.617 187.07 129.802 184.685C131.988 182.3 135.203 178.615 135.203 178.615C135.203 178.615 145.141 188.037 148.564 192.483C151.987 196.928 161.264 209.369 171.895 212.171C191.46 217.333 190.795 207.337 191.46 203.568C192.126 199.798 173.276 190.663 173.276 190.663C173.276 190.663 165.256 179.953 155.258 172.544Z" fill="black" stroke="black" stroke-width="0.471607" stroke-linecap="round" stroke-linejoin="round"/>
<path d="M75.3377 208.013C75.31 208.902 75.9568 209.587 77.3797 210.189C80.0248 211.232 82.8202 211.842 85.6587 211.995C87.8238 212.032 89.9773 212.321 92.0758 212.856C93.0691 213.106 95.9196 214.416 96.6172 213.319C97.2178 212.393 98.0032 207.582 98.3821 205.836C95.3375 205.934 91.8772 204.605 91.8772 204.605C91.8772 204.605 92.122 203.831 91.7386 201.827C90.7176 202.466 85.9636 205.438 83.0484 206.355C80.1332 207.272 75.3608 207.124 75.3377 208.013Z" fill="white" stroke="black" stroke-width="0.471607" stroke-linecap="round" stroke-linejoin="round"/>
<path d="M207.63 149.527C204.983 147.156 199.032 141.479 194.875 134.377C190.717 127.274 191.853 125.005 188.735 119.416C185.616 113.827 181.084 111.081 174.939 112.313C169.954 113.313 167.395 116.314 166.623 117.406C166.443 117.652 166.263 117.869 166.069 118.119C165.173 119.171 162.336 123.069 160.216 132.2C157.661 143.183 157.758 148.578 161.629 151.134C165.501 153.69 168.245 152.555 169.377 153.787C170.509 155.019 170.888 156.533 169.945 156.533C169.682 156.542 169.42 156.496 169.176 156.398C168.932 156.299 168.711 156.152 168.527 155.963C168.527 155.963 170.698 159.278 172.777 158.329C174.856 157.38 177.217 153.977 175.706 149.43C174.196 144.883 170.135 140.248 169.469 139.396C168.804 138.544 167.487 128.695 167.487 128.695C167.487 128.695 167.584 125.38 171.267 126.519C174.949 127.658 179.957 129.737 181.564 133.052C183.172 136.368 189.123 143.846 194.316 146.114C199.508 148.383 201.592 150.472 203.482 156.06C205.371 161.649 205.371 163.441 205.371 163.441C205.371 163.441 209.243 161.645 209.991 157.574C210.739 153.504 210.273 151.893 207.63 149.527ZM161.999 149.712C160.206 147.726 161.338 144.128 161.338 144.128C160.77 149.221 166.628 152.083 166.628 152.083C166.628 152.083 163.796 151.708 161.999 149.712Z" fill="black" stroke="black" stroke-width="0.471607" stroke-linecap="round" stroke-linejoin="round"/>
<path d="M173.683 191.529C173.683 191.529 161.14 189.301 158.03 190.417C154.921 191.533 146.818 204.883 145.372 206.438C143.926 207.994 142.373 208.665 141.043 208.665C139.712 208.665 134.935 207.776 132.159 208.332C129.382 208.888 125.94 210.67 126.277 212.337C126.615 214.004 128.162 214.787 133.272 215.579C138.382 216.37 143.819 214.467 145.261 213.685C146.702 212.902 148.37 211.796 148.814 211.573C149.257 211.351 153.253 210.457 155.476 209.013C157.125 207.875 158.684 206.61 160.137 205.23C160.137 205.23 169.576 209.568 173.128 211.462C176.681 213.356 182.234 214.578 185.344 214.578C188.453 214.578 195.226 213.685 196.893 212.907C198.561 212.129 201.666 209.124 201.666 205.679C201.666 202.234 202.035 197.414 200.904 197.205C199.772 196.997 198.778 197.446 197.67 197.335C196.561 197.224 190.449 193.774 188.892 193.103C187.335 192.432 173.683 191.529 173.683 191.529Z" fill="black" stroke="black" stroke-width="0.471607" stroke-linecap="round" stroke-linejoin="round"/>
<path d="M154.256 194.4C155.435 193.005 156.695 191.682 158.03 190.436C159.416 189.32 169.714 190.515 169.714 190.515" stroke="white" stroke-width="0.471607" stroke-linecap="round" stroke-linejoin="round"/>
<path d="M152.288 196.664C152.288 196.664 152.75 196.103 153.452 195.316" stroke="white" stroke-width="0.471607" stroke-linecap="round" stroke-linejoin="round"/>
<path d="M145.034 206.809C143.69 208.119 142.262 208.698 141.043 208.698C139.708 208.698 134.935 207.809 132.159 208.365C129.382 208.92 125.94 210.703 126.277 212.37C126.615 214.037 128.162 214.819 133.272 215.611C138.382 216.403 143.819 214.5 145.261 213.717C146.702 212.935 148.282 211.865 148.777 211.624C147.836 211.149 147.013 210.471 146.365 209.638C145.718 208.805 145.264 207.839 145.034 206.809Z" fill="white" stroke="black" stroke-width="0.471607" stroke-linecap="round" stroke-linejoin="round"/>
<path d="M141.375 211.022C140.839 210.147 141.435 209.17 141.994 208.573C141.682 208.645 141.363 208.682 141.043 208.684C139.708 208.684 134.935 207.795 132.159 208.351C129.382 208.906 125.94 210.689 126.277 212.356C126.615 214.023 128.162 214.805 133.272 215.597C138.382 216.389 143.819 214.486 145.261 213.703C145.483 213.587 145.723 213.458 145.935 213.328C144.531 213.12 142.152 212.282 141.375 211.022Z" fill="white" stroke="black" stroke-width="0.471607" stroke-linecap="round" stroke-linejoin="round"/>
<path d="M175.605 145.55C175.605 145.55 166.91 145.642 165.967 148.958C165.025 152.273 165.87 168.558 165.778 173.961C165.686 179.365 165.686 182.861 166.346 184.19C167.007 185.519 170.878 187.977 171.165 188.07C171.451 188.163 171.068 191.098 171.068 191.098C171.068 191.098 177.776 191.95 181.555 192.047C185.334 192.145 188.735 193.562 192.227 196.307C195.72 199.053 197.993 200.85 197.993 200.85L200.164 198.484C200.164 198.484 201.014 206.531 201.962 210.226C202.909 213.921 206.119 214.106 207.043 214.106C207.967 214.106 211.104 214.014 211.104 214.014C211.104 214.014 208.083 208.425 206.757 204.637C205.431 200.85 204.586 197.632 204.586 197.632C204.586 197.632 205.246 196.59 205.246 194.321C205.246 192.052 204.784 190.723 204.872 188.45C204.96 186.176 209.03 176.235 207.325 165.159C205.621 154.083 206.193 150.953 202.035 148.777C197.877 146.601 188.809 145.272 186.258 145.073C183.708 144.874 175.605 145.55 175.605 145.55Z" fill="#3382EB" stroke="black" stroke-width="0.471607" stroke-linecap="round" stroke-linejoin="round"/>
<path d="M169.46 139.396C169.213 138.865 169.042 138.303 168.952 137.724C166.97 134.404 165.177 130.978 164.706 129.348C163.99 126.88 164.54 122.185 164.914 119.717C163.634 121.754 161.731 125.616 160.206 132.219C157.652 143.202 157.749 148.596 161.62 151.152C165.492 153.708 168.236 152.574 169.368 153.805C170.5 155.037 170.879 156.551 169.936 156.551C169.673 156.56 169.411 156.514 169.167 156.416C168.923 156.318 168.702 156.17 168.518 155.982C168.518 155.982 170.689 159.297 172.768 158.348C174.847 157.399 177.208 153.995 175.697 149.448C174.186 144.901 170.112 140.248 169.46 139.396ZM161.999 149.712C160.206 147.726 161.338 144.128 161.338 144.128C160.77 149.221 166.628 152.083 166.628 152.083C166.628 152.083 163.796 151.708 161.999 149.712Z" fill="black" stroke="black" stroke-width="0.471607" stroke-linecap="round" stroke-linejoin="round"/>
<path d="M187.612 189.315L190.31 189.704" stroke="black" stroke-width="0.471607" stroke-linecap="round" stroke-linejoin="round"/>
<path d="M172.283 174.753C172.283 174.753 170.384 186.181 171.188 186.644C171.733 186.954 180.174 188.227 185.658 189.028" stroke="black" stroke-width="0.471607" stroke-linecap="round" stroke-linejoin="round"/>
<path d="M171.997 187.218L171.068 191.089" stroke="black" stroke-width="0.471607" stroke-linecap="round" stroke-linejoin="round"/>
<path d="M192.384 194.437C192.384 194.437 198.085 196.4 200.904 197.215C203.722 198.03 204.138 197.733 204.138 197.733" stroke="black" stroke-width="0.471607" stroke-linecap="round" stroke-linejoin="round"/>
<path d="M182.826 154.088L187.085 156.514L187.201 152.935" stroke="black" stroke-width="0.471607" stroke-linecap="round" stroke-linejoin="round"/>
<path d="M177.009 153.63L176.201 154.264" stroke="black" stroke-width="0.471607" stroke-linecap="round" stroke-linejoin="round"/>
<path d="M171.65 161.362L171.595 159.167" stroke="black" stroke-width="0.471607" stroke-linecap="round" stroke-linejoin="round"/>
<path d="M169.65 123.87C169.65 123.87 164.72 128.181 164.72 129.348C164.72 130.515 166.332 135.636 166.961 137.706C167.728 139.911 168.95 141.931 170.546 143.633C171.978 145.161 174.759 146.957 175.388 146.957C175.892 146.903 176.379 146.745 176.82 146.494C176.82 146.494 177.18 153.861 178.432 156.468C179.684 159.075 180.317 158.982 180.585 158.352C180.853 157.723 184.17 146.855 184.17 146.855L185.783 139.127L182.378 130.33C182.378 130.33 177.628 126.107 174.399 125.028C171.17 123.949 169.65 123.87 169.65 123.87Z" fill="white" stroke="black" stroke-width="0.471607" stroke-linecap="round" stroke-linejoin="round"/>
<path d="M172.422 139.41C172.422 139.41 172.422 141.03 172.694 141.118C172.967 141.206 174.126 141.581 174.487 140.655" stroke="black" stroke-width="0.471607" stroke-linecap="round" stroke-linejoin="round"/>
<path d="M173.401 142.91C173.401 142.91 176.09 143.271 176.986 141.382" stroke="black" stroke-width="0.471607" stroke-linecap="round" stroke-linejoin="round"/>
<path d="M176.806 146.508C176.806 146.508 179.763 144.193 181.38 142.017C181.38 142.017 179.587 146.24 179.047 147.318C178.739 147.929 178.471 148.558 178.243 149.203L176.806 146.508Z" fill="black" stroke="black" stroke-width="0.471607" stroke-linecap="round" stroke-linejoin="round"/>
<path d="M175.193 135.28C175.193 135.28 177.614 135.997 178.598 134.469" stroke="black" stroke-width="0.471607" stroke-linecap="round" stroke-linejoin="round"/>
<path d="M174.117 133.122C174.117 133.122 176.806 131.594 178.691 132.224" stroke="black" stroke-width="0.471607" stroke-linecap="round" stroke-linejoin="round"/>
<path d="M167.751 136.358C168.167 136.616 168.657 136.728 169.144 136.679C169.63 136.63 170.088 136.421 170.444 136.085" stroke="black" stroke-width="0.471607" stroke-linecap="round" stroke-linejoin="round"/>
<path d="M170.264 134.113C170.264 134.113 168.92 133.21 166.947 134.201" stroke="black" stroke-width="0.471607" stroke-linecap="round" stroke-linejoin="round"/>
<path d="M195.443 157.005C195.443 157.005 194.403 160.603 194.782 163.066C195.161 165.53 194.597 173.471 194.597 173.86C194.597 174.248 192.518 175.184 192.611 175.846C192.73 176.485 192.884 177.117 193.073 177.74L190.047 176.508L185.986 181.907C188.624 184.302 191.542 186.368 194.676 188.061C200.155 191.089 203.916 190.144 203.916 190.144C203.916 190.144 206.087 176.795 206.374 170.827C206.66 164.858 207.977 157.005 205.912 151.421C204.29 147.055 197.134 146.494 195.521 153.977" fill="#3382EB"/>
<path d="M195.443 157.005C195.443 157.005 194.403 160.603 194.782 163.066C195.161 165.53 194.597 173.471 194.597 173.86C194.597 174.248 192.518 175.184 192.611 175.846C192.73 176.485 192.884 177.117 193.073 177.74L190.047 176.508L185.986 181.907C188.624 184.302 191.542 186.368 194.676 188.061C200.155 191.089 203.916 190.144 203.916 190.144C203.916 190.144 206.087 176.795 206.374 170.827C206.66 164.858 207.977 157.005 205.912 151.421C204.29 147.055 197.134 146.494 195.521 153.977" stroke="black" stroke-width="0.471607" stroke-linecap="round" stroke-linejoin="round"/>
<path d="M200.474 171.97L201.393 171.586" stroke="black" stroke-width="0.471607" stroke-linecap="round" stroke-linejoin="round"/>
<path d="M195.725 173.952L199.324 172.452" stroke="black" stroke-width="0.471607" stroke-linecap="round" stroke-linejoin="round"/>
<path d="M193.743 177.929C193.743 177.929 201.675 175.943 201.597 176.605C201.518 177.267 198.857 177.531 198.857 177.531" stroke="black" stroke-width="0.471607" stroke-linecap="round" stroke-linejoin="round"/>
<path d="M194.597 178.309C194.597 178.309 200.451 178.971 201.49 181.435" stroke="black" stroke-width="0.471607" stroke-linecap="round" stroke-linejoin="round"/>
<path d="M200.492 183.875C200.83 184.093 201.197 184.259 201.583 184.37" stroke="black" stroke-width="0.471607" stroke-linecap="round" stroke-linejoin="round"/>
<path d="M194.135 179.161C194.135 179.161 197.254 181.736 199.545 183.268" stroke="black" stroke-width="0.471607" stroke-linecap="round" stroke-linejoin="round"/>
<path d="M157.541 161.71C157.541 161.71 155.411 166.27 156.215 167.021C157.019 167.771 161.86 172.443 162.322 172.674C162.784 172.906 164.106 176.948 164.799 178.504C165.492 180.06 165.894 183.699 167.215 184.218C168.536 184.736 171.373 182.027 171.419 180.643C171.465 179.258 171.419 178.735 170.153 176.939C168.887 175.142 165.995 169.377 165.995 169.377L158.1 160.783L157.541 161.71Z" fill="white" stroke="black" stroke-width="0.471607" stroke-linecap="round" stroke-linejoin="round"/>
<path d="M153.859 156.051L162.784 170.595L169.636 171.521L162.955 158.302L153.859 156.051Z" fill="black" stroke="black" stroke-width="0.471607" stroke-linecap="round" stroke-linejoin="round"/>
<path d="M190.056 176.508C190.056 176.508 179.855 169.303 177.208 167.516C175.889 166.649 174.627 165.7 173.429 164.673C173.429 164.673 173.147 162.876 172.505 162.117C171.863 161.357 171.183 161.191 169.954 161.265C168.726 161.339 167.686 161.552 166.928 161.265C166.171 160.978 164.757 158.616 164.568 159.658C164.378 160.7 164.475 161.455 165.418 162.214C166.36 162.973 167.686 163.256 168.065 163.441C168.444 163.626 167.464 163.788 167.464 163.788C165.944 164.325 164.32 164.502 162.72 164.307C161.139 164.101 159.593 163.684 158.123 163.066C157.462 162.876 157.554 163.821 158.312 164.39C159.07 164.96 159.536 165.242 159.536 165.242C159.536 165.242 157.176 164.863 157.462 165.622C157.749 166.381 158.783 167.044 159.444 167.516C160.105 167.988 160.765 168.84 161.334 169.123C161.902 169.405 161.994 170.734 162.941 171.303C163.888 171.873 163.607 171.808 166.018 172.03C168.547 172.234 171.089 172.212 173.613 171.966L185.99 181.907L190.056 176.508Z" fill="white" stroke="black" stroke-width="0.471607" stroke-linecap="round" stroke-linejoin="round"/>
<path d="M159.541 165.242C159.541 165.242 161.906 166.377 162.281 166.377H167.386" stroke="black" stroke-width="0.471607" stroke-linecap="round" stroke-linejoin="round"/>
<path d="M159.024 167.308C159.574 167.374 160.114 167.509 160.631 167.71C160.964 167.933 163.126 168.363 163.791 168.474C164.786 168.544 165.784 168.562 166.781 168.53" stroke="black" stroke-width="0.471607" stroke-linecap="round" stroke-linejoin="round"/>
<path d="M161.334 169.123C161.334 169.123 163.972 170.419 164.471 170.512C165.542 170.54 166.614 170.503 167.681 170.401" stroke="black" stroke-width="0.471607" stroke-linecap="round" stroke-linejoin="round"/>
<path d="M192.324 139.396C188.912 135.728 185.785 131.802 182.974 127.653C182.974 127.653 181.934 142.517 184.198 148.86C186.462 155.204 194.782 152.565 197.707 150.944C200.631 149.323 201.675 148.106 203.472 148.388C199.39 145.878 195.644 142.856 192.324 139.396Z" fill="black" stroke="black" stroke-width="0.471607" stroke-linecap="round" stroke-linejoin="round"/>
<path d="M171.036 123.116C167.737 119.189 169.65 123.871 169.65 123.871C169.65 123.871 175.965 129.913 182.378 130.353C182.364 130.339 174.343 127.042 171.036 123.116Z" fill="black" stroke="black" stroke-width="0.471607" stroke-linecap="round" stroke-linejoin="round"/>
</g>
<defs>
<clipPath id="clip0_1003_575">
<rect width="219" height="216" fill="white"/>
</clipPath>
</defs>
</svg>
